<?xml version="1.0" encoding="utf-8"?>
<!-- Generator: Adobe Illustrator 19.2.1, SVG Export Plug-In . SVG Version: 6.00 Build 0)  -->
<svg version="1.1" id="layer" xmlns="http://www.w3.org/2000/svg" xmlns:xlink="http://www.w3.org/1999/xlink" x="0px" y="0px"
	 viewBox="0 0 652 652" style="enable-background:new 0 0 652 652;" xml:space="preserve">
<style type="text/css">
	.st0{fill:#025064;}
</style>
<path class="st0" d="M482.9,338.2c0,0.6-0.1,1.1-0.3,1.7c-0.2,0.5-0.5,1-0.9,1.4c-0.4,0.4-0.9,0.7-1.4,0.9c-0.5,0.2-1.1,0.3-1.7,0.3
	h-50.1c-1.1,0-2.1-0.5-2.9-1.3c-0.8-0.8-1.2-1.9-1.2-3v-34c0-0.5,0.1-1.1,0.3-1.6c0.2-0.5,0.5-0.9,0.9-1.3c0.4-0.4,0.8-0.7,1.3-0.9
	c0.5-0.2,1-0.3,1.6-0.3h50.1c0.6,0,1.1,0.1,1.6,0.3c0.5,0.2,1,0.5,1.4,0.9c0.4,0.4,0.7,0.8,0.9,1.3c0.2,0.5,0.3,1.1,0.3,1.6V338.2z
	 M603.7,336.8c10.3-1.6,15.3-8.5,15.3-19.2v-16.1c0-12.4-7.2-19.4-19.4-19.4h-76.5v78.3h19.2v-60.2h53.2c0.5,0,1.1,0.1,1.6,0.3
	s1,0.5,1.4,0.9c0.4,0.4,0.7,0.8,0.9,1.4c0.2,0.5,0.3,1.1,0.3,1.6v10.7c0,0.5-0.1,1.1-0.3,1.6c-0.2,0.5-0.5,1-0.9,1.4
	c-0.4,0.4-0.8,0.7-1.4,0.9s-1,0.3-1.6,0.3h-45.3V337h31.1l16.3,23.3h23.5L603.7,336.8z M424.6,282c-12.4,0-19.4,7.2-19.4,19.4v39.2
	c0,12.4,7.2,19.4,19.4,19.4h58.1c12.2,0,19.4-7.2,19.4-19.4v-39.2c0-12.4-7.2-19.4-19.4-19.4H424.6z M298.1,340.7
	c0,12.4,7.2,19.4,19.4,19.4h67.6v-17.9h-63.5c-0.6,0-1.1-0.1-1.6-0.3c-0.5-0.2-1-0.5-1.3-0.9c-0.4-0.4-0.7-0.9-0.9-1.4
	c-0.2-0.5-0.3-1.1-0.3-1.6v-33.8c0-1.1,0.4-2.1,1.2-2.9c0.8-0.8,1.8-1.2,2.9-1.2h63.7V282h-67.8c-12.4,0-19.4,7.2-19.4,19.4V340.7z
	 M277.1,282h-19.4v78.3h19.4V282z M141.5,282v78.3h19.4v-60.2h52.9c0.6-0.1,1.1,0,1.7,0.2s1,0.5,1.4,0.9c0.4,0.4,0.7,0.9,0.9,1.4
	c0.2,0.5,0.3,1.1,0.3,1.6v10.7c0,0.6-0.1,1.1-0.3,1.6c-0.2,0.5-0.5,1-0.9,1.4c-0.4,0.4-0.9,0.7-1.4,0.9c-0.5,0.2-1.1,0.2-1.7,0.2
	H170V337h47.8c12.4,0,19.4-7.2,19.4-19.4v-16.1c0-12.4-7.2-19.4-19.4-19.4H141.5z M40.6,282c-12.4,0-19.4,7.2-19.4,19.4v39.2
	c0,12.4,7.2,19.4,19.4,19.4H116v-16.5H44.5c-0.5,0-1.1-0.1-1.6-0.3c-0.5-0.2-0.9-0.5-1.3-0.9c-0.4-0.4-0.7-0.8-0.9-1.3
	c-0.2-0.5-0.3-1-0.3-1.6v-36.9c0-0.6,0.1-1.1,0.3-1.6c0.2-0.5,0.5-1,0.9-1.4c0.4-0.4,0.8-0.7,1.3-0.9c0.5-0.2,1.1-0.3,1.6-0.3h50.1
	c0.6,0,1.1,0.1,1.7,0.3c0.5,0.2,1,0.5,1.4,0.9c0.4,0.4,0.7,0.9,0.9,1.4c0.2,0.5,0.3,1.1,0.3,1.7v7.2c0,0.5-0.1,1.1-0.3,1.6
	c-0.2,0.5-0.5,0.9-0.9,1.3c-0.4,0.4-0.9,0.6-1.4,0.8c-0.5,0.2-1.1,0.2-1.6,0.2H48.4v16.5h50.3c12.4,0,19.4-7.4,19.4-19.4v-9.3
	c0-12.4-7.2-19.4-19.4-19.4H40.6z"/>
</svg>
