<?xml version="1.0" standalone="no"?>
<!DOCTYPE svg PUBLIC "-//W3C//DTD SVG 20010904//EN"
 "http://www.w3.org/TR/2001/REC-SVG-20010904/DTD/svg10.dtd">
<svg version="1.0" xmlns="http://www.w3.org/2000/svg"
 width="512.000000pt" height="512.000000pt" viewBox="0 0 512.000000 512.000000"
 preserveAspectRatio="xMidYMid meet">

<g transform="translate(0.000000,512.000000) scale(0.100000,-0.100000)"
fill="#000000" stroke="none">
<path d="M2904 5073 c44 -148 12 -304 -91 -447 -94 -130 -199 -229 -498 -470
-227 -183 -424 -372 -483 -464 -148 -231 -96 -474 169 -788 101 -119 309 -305
469 -420 55 -39 55 -39 36 -9 -76 117 -131 216 -216 390 -139 283 -153 324
-148 406 10 138 83 242 380 546 287 295 396 434 463 594 78 183 73 369 -14
553 -42 91 -79 151 -67 109z"/>
<path d="M3630 4205 c-295 -45 -567 -138 -741 -255 -90 -61 -218 -193 -256
-265 -50 -97 -77 -198 -77 -295 0 -135 29 -203 179 -425 102 -151 129 -217
122 -303 -6 -82 -51 -174 -124 -252 -63 -69 -56 -74 45 -33 104 41 171 82 243
150 107 101 158 222 146 348 -8 82 -31 139 -120 304 -88 160 -107 212 -107
289 0 87 35 148 150 262 118 117 260 228 467 367 163 109 184 124 168 122 -6
-1 -48 -7 -95 -14z"/>
<path d="M1550 2525 c-440 -45 -653 -144 -616 -288 22 -88 207 -163 506 -204
114 -15 202 -18 555 -18 447 1 575 9 945 61 313 43 302 40 435 135 65 46 136
100 159 120 l40 36 -114 -18 c-141 -23 -442 -54 -690 -70 -249 -17 -954 -17
-1083 0 -144 19 -182 31 -182 61 0 47 118 107 333 170 l97 29 -130 -1 c-71 0
-186 -6 -255 -13z"/>
<path d="M3840 2522 c-50 -17 -133 -56 -170 -81 -10 -7 9 -10 62 -10 120 0
187 -23 259 -88 79 -71 101 -153 75 -267 -41 -175 -198 -381 -423 -555 -46
-35 -83 -66 -83 -68 0 -18 267 59 373 106 224 100 372 259 422 451 25 95 17
245 -18 322 -34 75 -93 138 -164 173 -52 26 -70 29 -168 32 -86 2 -122 -1
-165 -15z"/>
<path d="M1609 1959 c-99 -23 -223 -97 -264 -157 -74 -109 27 -198 304 -267
194 -49 312 -60 641 -60 319 0 419 9 660 56 168 33 440 113 440 130 0 3 -66
46 -147 95 l-148 90 -110 -28 c-232 -59 -360 -72 -700 -73 -261 0 -324 3 -400
18 -94 19 -178 52 -208 81 -23 23 -22 68 4 100 l20 26 -28 -1 c-15 -1 -44 -5
-64 -10z"/>
<path d="M1739 1426 c-157 -44 -264 -167 -225 -259 27 -65 125 -119 281 -155
139 -33 272 -45 490 -45 308 1 586 41 813 119 109 37 196 76 206 93 4 5 -65
55 -152 110 l-159 101 -58 -20 c-166 -57 -470 -100 -705 -100 -298 1 -439 52
-388 141 l17 29 -37 -1 c-20 0 -58 -7 -83 -13z"/>
<path d="M920 1146 c-228 -52 -370 -157 -370 -272 0 -50 44 -126 100 -177 233
-210 951 -341 1760 -323 952 22 1620 198 1752 461 53 106 15 195 -114 269
l-46 27 5 -60 c5 -48 2 -68 -17 -106 -75 -156 -407 -271 -955 -331 -234 -25
-826 -30 -1085 -10 -572 47 -893 139 -925 267 -12 48 57 107 160 139 22 7 94
15 160 19 l120 6 -85 49 -85 50 -160 2 c-103 2 -180 -2 -215 -10z"/>
<path d="M4525 653 c-66 -59 -228 -161 -337 -212 -623 -293 -1556 -375 -2538
-225 -91 14 -218 37 -283 51 -65 14 -120 23 -123 21 -6 -7 286 -104 411 -137
677 -180 1499 -197 2110 -45 132 33 303 89 391 129 173 79 330 210 379 317 21
47 44 139 34 138 -2 -1 -22 -17 -44 -37z"/>
</g>
</svg>
